<svg width="90" height="90" viewBox="0 0 90 90" fill="none" xmlns="http://www.w3.org/2000/svg">
<rect width="70" height="70" transform="translate(10 10)" fill="#2D387D"/>
<path d="M63.5714 51.4286H62.1429V34.2857C62.1429 33.1491 61.6913 32.059 60.8876 31.2553C60.0839 30.4515 58.9938 30 57.8571 30H32.1429C31.0062 30 29.9161 30.4515 29.1124 31.2553C28.3087 32.059 27.8571 33.1491 27.8571 34.2857V51.4286H26.4286C26.0497 51.4286 25.6863 51.5791 25.4184 51.847C25.1505 52.1149 25 52.4783 25 52.8571V55.7143C25 56.8509 25.4515 57.941 26.2553 58.7447C27.059 59.5485 28.1491 60 29.2857 60H60.7143C61.8509 60 62.941 59.5485 63.7447 58.7447C64.5485 57.941 65 56.8509 65 55.7143V52.8571C65 52.4783 64.8495 52.1149 64.5816 51.847C64.3137 51.5791 63.9503 51.4286 63.5714 51.4286ZM42.1429 34.2857H47.8571C48.236 34.2857 48.5994 34.4362 48.8673 34.7041C49.1352 34.972 49.2857 35.3354 49.2857 35.7143C49.2857 36.0932 49.1352 36.4565 48.8673 36.7244C48.5994 36.9923 48.236 37.1429 47.8571 37.1429H42.1429C41.764 37.1429 41.4006 36.9923 41.1327 36.7244C40.8648 36.4565 40.7143 36.0932 40.7143 35.7143C40.7143 35.3354 40.8648 34.972 41.1327 34.7041C41.4006 34.4362 41.764 34.2857 42.1429 34.2857ZM62.1429 55.7143C62.1429 56.0932 61.9924 56.4565 61.7244 56.7244C61.4565 56.9923 61.0932 57.1429 60.7143 57.1429H29.2857C28.9068 57.1429 28.5435 56.9923 28.2756 56.7244C28.0077 56.4565 27.8571 56.0932 27.8571 55.7143V54.2857H62.1429V55.7143Z" fill="white"/>
</svg>
