<svg width="90" height="90" viewBox="0 0 90 90" fill="none" xmlns="http://www.w3.org/2000/svg">
<rect width="70" height="70" transform="translate(10 10)" fill="#2D387D"/>
<path d="M55 50H51.6667V53.3333H55M55 43.3333H51.6667V46.6667H55M58.3333 56.6667H45V53.3333H48.3333V50H45V46.6667H48.3333V43.3333H45V40H58.3333M41.6667 36.6667H38.3333V33.3333H41.6667M41.6667 43.3333H38.3333V40H41.6667M41.6667 50H38.3333V46.6667H41.6667M41.6667 56.6667H38.3333V53.3333H41.6667M35 36.6667H31.6667V33.3333H35M35 43.3333H31.6667V40H35M35 50H31.6667V46.6667H35M35 56.6667H31.6667V53.3333H35M45 36.6667V30H28.3333V60H61.6667V36.6667H45Z" fill="white"/>
</svg>
