<svg width="70" height="70" viewBox="0 0 70 70" fill="none" xmlns="http://www.w3.org/2000/svg">
<rect width="70" height="70" fill="#2D387D"/>
<path d="M53.5714 41.4286H52.1429V24.2857C52.1429 23.1491 51.6913 22.059 50.8876 21.2553C50.0839 20.4515 48.9938 20 47.8571 20H22.1429C21.0062 20 19.9161 20.4515 19.1124 21.2553C18.3087 22.059 17.8571 23.1491 17.8571 24.2857V41.4286H16.4286C16.0497 41.4286 15.6863 41.5791 15.4184 41.847C15.1505 42.1149 15 42.4783 15 42.8571V45.7143C15 46.8509 15.4515 47.941 16.2553 48.7447C17.059 49.5485 18.1491 50 19.2857 50H50.7143C51.8509 50 52.941 49.5485 53.7447 48.7447C54.5485 47.941 55 46.8509 55 45.7143V42.8571C55 42.4783 54.8495 42.1149 54.5816 41.847C54.3137 41.5791 53.9503 41.4286 53.5714 41.4286ZM32.1429 24.2857H37.8571C38.236 24.2857 38.5994 24.4362 38.8673 24.7041C39.1352 24.972 39.2857 25.3354 39.2857 25.7143C39.2857 26.0932 39.1352 26.4565 38.8673 26.7244C38.5994 26.9923 38.236 27.1429 37.8571 27.1429H32.1429C31.764 27.1429 31.4006 26.9923 31.1327 26.7244C30.8648 26.4565 30.7143 26.0932 30.7143 25.7143C30.7143 25.3354 30.8648 24.972 31.1327 24.7041C31.4006 24.4362 31.764 24.2857 32.1429 24.2857ZM52.1429 45.7143C52.1429 46.0932 51.9924 46.4565 51.7244 46.7244C51.4565 46.9923 51.0932 47.1429 50.7143 47.1429H19.2857C18.9068 47.1429 18.5435 46.9923 18.2756 46.7244C18.0077 46.4565 17.8571 46.0932 17.8571 45.7143V44.2857H52.1429V45.7143Z" fill="white"/>
</svg>
