<svg width="90" height="90" viewBox="0 0 90 90" fill="none" xmlns="http://www.w3.org/2000/svg">
<rect width="70" height="70" transform="translate(10 10)" fill="#2D387D"/>
<path d="M58.75 31.25H31.25C30.587 31.25 29.9511 31.5134 29.4822 31.9822C29.0134 32.4511 28.75 33.087 28.75 33.75V56.25C28.75 56.913 29.0134 57.5489 29.4822 58.0178C29.9511 58.4866 30.587 58.75 31.25 58.75H33.3422C33.5788 58.7501 33.8105 58.683 34.0105 58.5566C34.2104 58.4302 34.3704 58.2497 34.4719 58.0359C35.0797 56.7526 36.0394 55.6682 37.2393 54.9089C38.4392 54.1495 39.83 53.7464 41.25 53.7464C42.67 53.7464 44.0608 54.1495 45.2607 54.9089C46.4606 55.6682 47.4203 56.7526 48.0281 58.0359C48.1296 58.2497 48.2896 58.4302 48.4895 58.5566C48.6895 58.683 48.9212 58.7501 49.1578 58.75H58.75C59.413 58.75 60.0489 58.4866 60.5178 58.0178C60.9866 57.5489 61.25 56.913 61.25 56.25V33.75C61.25 33.087 60.9866 32.4511 60.5178 31.9822C60.0489 31.5134 59.413 31.25 58.75 31.25ZM41.25 51.25C40.2611 51.25 39.2944 50.9568 38.4721 50.4073C37.6499 49.8579 37.009 49.077 36.6306 48.1634C36.2522 47.2498 36.1531 46.2445 36.3461 45.2745C36.539 44.3046 37.0152 43.4137 37.7145 42.7145C38.4137 42.0152 39.3046 41.539 40.2745 41.3461C41.2445 41.1531 42.2498 41.2522 43.1634 41.6306C44.077 42.009 44.8579 42.6499 45.4073 43.4721C45.9568 44.2944 46.25 45.2611 46.25 46.25C46.25 47.5761 45.7232 48.8479 44.7855 49.7855C43.8479 50.7232 42.5761 51.25 41.25 51.25ZM58.75 56.25H49.9109C49.3658 55.3105 48.6713 54.4661 47.8547 53.75H55C55.3315 53.75 55.6495 53.6183 55.8839 53.3839C56.1183 53.1495 56.25 52.8315 56.25 52.5V37.5C56.25 37.1685 56.1183 36.8505 55.8839 36.6161C55.6495 36.3817 55.3315 36.25 55 36.25H35C34.6685 36.25 34.3505 36.3817 34.1161 36.6161C33.8817 36.8505 33.75 37.1685 33.75 37.5V52.5C33.7499 52.7772 33.8419 53.0466 34.0116 53.2658C34.1813 53.4851 34.4191 53.6416 34.6875 53.7109C33.8519 54.4349 33.1427 55.293 32.5891 56.25H31.25V33.75H58.75V56.25Z" fill="white"/>
</svg>
