<svg width="70" height="70" viewBox="0 0 70 70" fill="none" xmlns="http://www.w3.org/2000/svg">
<rect width="70" height="70" fill="#2D387D"/>
<path d="M48.75 21.25H21.25C20.587 21.25 19.9511 21.5134 19.4822 21.9822C19.0134 22.4511 18.75 23.087 18.75 23.75V46.25C18.75 46.913 19.0134 47.5489 19.4822 48.0178C19.9511 48.4866 20.587 48.75 21.25 48.75H23.3422C23.5788 48.7501 23.8105 48.683 24.0105 48.5566C24.2104 48.4302 24.3704 48.2497 24.4719 48.0359C25.0797 46.7526 26.0394 45.6682 27.2393 44.9089C28.4392 44.1495 29.83 43.7464 31.25 43.7464C32.67 43.7464 34.0608 44.1495 35.2607 44.9089C36.4606 45.6682 37.4203 46.7526 38.0281 48.0359C38.1296 48.2497 38.2896 48.4302 38.4895 48.5566C38.6895 48.683 38.9212 48.7501 39.1578 48.75H48.75C49.413 48.75 50.0489 48.4866 50.5178 48.0178C50.9866 47.5489 51.25 46.913 51.25 46.25V23.75C51.25 23.087 50.9866 22.4511 50.5178 21.9822C50.0489 21.5134 49.413 21.25 48.75 21.25ZM31.25 41.25C30.2611 41.25 29.2944 40.9568 28.4721 40.4073C27.6499 39.8579 27.009 39.077 26.6306 38.1634C26.2522 37.2498 26.1531 36.2445 26.3461 35.2745C26.539 34.3046 27.0152 33.4137 27.7145 32.7145C28.4137 32.0152 29.3046 31.539 30.2745 31.3461C31.2445 31.1531 32.2498 31.2522 33.1634 31.6306C34.077 32.009 34.8579 32.6499 35.4073 33.4721C35.9568 34.2944 36.25 35.2611 36.25 36.25C36.25 37.5761 35.7232 38.8479 34.7855 39.7855C33.8479 40.7232 32.5761 41.25 31.25 41.25ZM48.75 46.25H39.9109C39.3658 45.3105 38.6713 44.4661 37.8547 43.75H45C45.3315 43.75 45.6495 43.6183 45.8839 43.3839C46.1183 43.1495 46.25 42.8315 46.25 42.5V27.5C46.25 27.1685 46.1183 26.8505 45.8839 26.6161C45.6495 26.3817 45.3315 26.25 45 26.25H25C24.6685 26.25 24.3505 26.3817 24.1161 26.6161C23.8817 26.8505 23.75 27.1685 23.75 27.5V42.5C23.7499 42.7772 23.8419 43.0466 24.0116 43.2658C24.1813 43.4851 24.4191 43.6416 24.6875 43.7109C23.8519 44.4349 23.1427 45.293 22.5891 46.25H21.25V23.75H48.75V46.25Z" fill="white"/>
</svg>
