<svg width="70" height="70" viewBox="0 0 70 70" fill="none" xmlns="http://www.w3.org/2000/svg">
<rect width="70" height="70" fill="#2D387D"/>
<path d="M45 40H41.6666V43.3333H45M45 33.3333H41.6666V36.6667H45M48.3333 46.6667H35V43.3333H38.3333V40H35V36.6667H38.3333V33.3333H35V30H48.3333M31.6666 26.6667H28.3333V23.3333H31.6666M31.6666 33.3333H28.3333V30H31.6666M31.6666 40H28.3333V36.6667H31.6666M31.6666 46.6667H28.3333V43.3333H31.6666M25 26.6667H21.6666V23.3333H25M25 33.3333H21.6666V30H25M25 40H21.6666V36.6667H25M25 46.6667H21.6666V43.3333H25M35 26.6667V20H18.3333V50H51.6666V26.6667H35Z" fill="white"/>
</svg>
