<svg width="260" height="90" viewBox="0 0 260 90" fill="none" xmlns="http://www.w3.org/2000/svg">
<path d="M22.1695 55.3887C22.1681 57.0245 21.6818 58.6231 20.772 59.9826C19.8622 61.342 18.5697 62.4012 17.0581 63.0262C15.5464 63.6513 13.8833 63.8141 12.2791 63.4941C10.6749 63.1741 9.2016 62.3857 8.04541 61.2285C6.88922 60.0714 6.10206 58.5974 5.78344 56.9929C5.46482 55.3884 5.62905 53.7255 6.25536 52.2144C6.88168 50.7032 7.94196 49.4117 9.30217 48.503C10.6624 47.5944 12.2615 47.1094 13.8973 47.1094H22.1695V55.3887ZM26.3391 55.3887C26.3391 53.1947 27.2106 51.0906 28.762 49.5393C30.3133 47.9879 32.4174 47.1164 34.6113 47.1164C36.8053 47.1164 38.9094 47.9879 40.4607 49.5393C42.0121 51.0906 42.8836 53.1947 42.8836 55.3887V76.1027C42.8836 78.2967 42.0121 80.4008 40.4607 81.9521C38.9094 83.5035 36.8053 84.375 34.6113 84.375C32.4174 84.375 30.3133 83.5035 28.762 81.9521C27.2106 80.4008 26.3391 78.2967 26.3391 76.1027V55.3887ZM34.6113 22.1695C32.9755 22.1681 31.3769 21.6818 30.0174 20.772C28.658 19.8622 27.5988 18.5697 26.9738 17.0581C26.3487 15.5464 26.1859 13.8833 26.5059 12.2791C26.8259 10.6749 27.6143 9.2016 28.7715 8.04541C29.9286 6.88922 31.4026 6.10206 33.0071 5.78344C34.6116 5.46482 36.2745 5.62905 37.7856 6.25536C39.2968 6.88168 40.5883 7.94196 41.497 9.30217C42.4056 10.6624 42.8906 12.2615 42.8906 13.8973V22.1695H34.6113ZM34.6113 26.3391C36.8053 26.3391 38.9094 27.2106 40.4607 28.762C42.0121 30.3133 42.8836 32.4174 42.8836 34.6113C42.8836 36.8053 42.0121 38.9094 40.4607 40.4607C38.9094 42.0121 36.8053 42.8836 34.6113 42.8836H13.8973C11.7033 42.8836 9.59924 42.0121 8.04789 40.4607C6.49654 38.9094 5.625 36.8053 5.625 34.6113C5.625 32.4174 6.49654 30.3133 8.04789 28.762C9.59924 27.2106 11.7033 26.3391 13.8973 26.3391H34.6113ZM67.8305 34.6113C67.8319 32.9755 68.3182 31.3769 69.228 30.0174C70.1378 28.658 71.4303 27.5988 72.9419 26.9738C74.4536 26.3487 76.1167 26.1859 77.7209 26.5059C79.3251 26.8259 80.7984 27.6143 81.9546 28.7715C83.1108 29.9286 83.8979 31.4026 84.2166 33.0071C84.5352 34.6116 84.3709 36.2745 83.7446 37.7856C83.1183 39.2968 82.058 40.5883 80.6978 41.497C79.3376 42.4056 77.7385 42.8906 76.1027 42.8906H67.8305V34.6113ZM63.6609 34.6113C63.6609 36.8053 62.7894 38.9094 61.238 40.4607C59.6867 42.0121 57.5826 42.8836 55.3887 42.8836C53.1947 42.8836 51.0906 42.0121 49.5393 40.4607C47.9879 38.9094 47.1164 36.8053 47.1164 34.6113V13.8973C47.1164 11.7033 47.9879 9.59924 49.5393 8.04789C51.0906 6.49654 53.1947 5.625 55.3887 5.625C57.5826 5.625 59.6867 6.49654 61.238 8.04789C62.7894 9.59924 63.6609 11.7033 63.6609 13.8973V34.6113ZM55.3887 67.8305C57.0245 67.8319 58.6231 68.3182 59.9826 69.228C61.342 70.1378 62.4012 71.4303 63.0262 72.9419C63.6513 74.4536 63.8141 76.1167 63.4941 77.7209C63.1741 79.3251 62.3857 80.7984 61.2285 81.9546C60.0714 83.1108 58.5974 83.8979 56.9929 84.2166C55.3884 84.5352 53.7255 84.3709 52.2144 83.7446C50.7032 83.1183 49.4117 82.058 48.503 80.6978C47.5944 79.3376 47.1094 77.7385 47.1094 76.1027V67.8305H55.3887ZM55.3887 63.6609C53.1947 63.6609 51.0906 62.7894 49.5393 61.238C47.9879 59.6867 47.1164 57.5826 47.1164 55.3887C47.1164 53.1947 47.9879 51.0906 49.5393 49.5393C51.0906 47.9879 53.1947 47.1164 55.3887 47.1164H76.1027C78.2967 47.1164 80.4008 47.9879 81.9521 49.5393C83.5035 51.0906 84.375 53.1947 84.375 55.3887C84.375 57.5826 83.5035 59.6867 81.9521 61.238C80.4008 62.7894 78.2967 63.6609 76.1027 63.6609H55.3887Z" fill="url(#paint0_linear_60_222)"/>
<path d="M104.648 27.1953C104.128 27.1953 103.561 27.1497 102.949 27.0586C102.337 26.9805 101.667 26.8568 100.938 26.6875C100.872 26.401 100.801 26.043 100.723 25.6133C100.658 25.1836 100.599 24.7669 100.547 24.3633C100.508 23.9466 100.488 23.6406 100.488 23.4453C100.527 23.3151 100.645 23.25 100.84 23.25C101.243 23.25 101.452 23.2891 101.465 23.3672C101.543 23.7578 101.719 24.168 101.992 24.5977C102.266 25.0143 102.598 25.3659 102.988 25.6523C103.392 25.9388 103.815 26.082 104.258 26.082C105.547 26.082 106.191 25.3724 106.191 23.9531C106.191 23.5755 106.042 23.2305 105.742 22.918C105.456 22.6055 105.117 22.3255 104.727 22.0781C104.349 21.8307 104.023 21.6159 103.75 21.4336L103.164 21.043C102.721 20.7435 102.305 20.4375 101.914 20.125C101.523 19.7995 101.204 19.4284 100.957 19.0117C100.723 18.582 100.605 18.0612 100.605 17.4492C100.605 16.7852 100.807 16.1862 101.211 15.6523C101.615 15.1185 102.135 14.6953 102.773 14.3828C103.411 14.0703 104.076 13.9141 104.766 13.9141C105.039 13.9141 105.319 13.9336 105.605 13.9727C105.905 14.0117 106.159 14.0508 106.367 14.0898C106.758 14.168 107.09 14.2461 107.363 14.3242C107.65 14.3893 107.878 14.4349 108.047 14.4609C108.112 15.099 108.164 15.6849 108.203 16.2188C108.242 16.7526 108.262 17.2474 108.262 17.7031C108.21 17.8333 108.112 17.8984 107.969 17.8984C107.578 17.8984 107.376 17.8529 107.363 17.7617C107.311 17.319 107.168 16.8893 106.934 16.4727C106.699 16.056 106.4 15.7109 106.035 15.4375C105.671 15.151 105.254 15.0078 104.785 15.0078C104.342 15.0078 103.965 15.1445 103.652 15.418C103.353 15.6914 103.203 16.1276 103.203 16.7266C103.203 17.2604 103.438 17.7292 103.906 18.1328C104.388 18.5365 105.007 18.9792 105.762 19.4609L106.758 20.0859C107.122 20.3073 107.467 20.5547 107.793 20.8281C108.118 21.0885 108.385 21.4336 108.594 21.8633C108.802 22.2799 108.906 22.8529 108.906 23.582C108.906 24.2721 108.704 24.8906 108.301 25.4375C107.91 25.9844 107.389 26.4141 106.738 26.7266C106.1 27.0391 105.404 27.1953 104.648 27.1953ZM121.895 27.1367C121.257 27.1367 120.671 27.0781 120.137 26.9609C119.616 26.8307 119.199 26.6875 118.887 26.5312C118.561 26.375 118.242 26.1406 117.93 25.8281C117.773 25.6719 117.63 25.5221 117.5 25.3789C117.37 25.2357 117.227 25.0599 117.07 24.8516C116.927 24.6302 116.738 24.3438 116.504 23.9922C116.27 23.6276 115.964 23.1458 115.586 22.5469C115.078 21.7786 114.74 21.362 114.57 21.2969C114.544 21.2839 114.473 21.2773 114.355 21.2773C114.238 21.2773 114.18 21.3815 114.18 21.5898V24.2461C114.18 24.9362 114.225 25.4701 114.316 25.8477C114.342 25.9518 114.453 26.043 114.648 26.1211C114.844 26.1992 115.059 26.2578 115.293 26.2969C115.527 26.3359 115.71 26.3555 115.84 26.3555C115.892 26.3555 115.918 26.4792 115.918 26.7266C115.918 26.8568 115.905 26.974 115.879 27.0781C115.098 27.0391 114.46 27.0065 113.965 26.9805C113.47 26.9544 113.112 26.9479 112.891 26.9609L110.039 27.0781C109.987 27.026 109.961 26.9154 109.961 26.7461C109.961 26.4857 109.987 26.3555 110.039 26.3555C110.143 26.3555 110.293 26.3359 110.488 26.2969C110.684 26.2578 110.866 26.2057 111.035 26.1406C111.204 26.0625 111.302 25.9909 111.328 25.9258C111.406 25.6263 111.445 25.0534 111.445 24.207V16.8242C111.445 16.0951 111.406 15.5872 111.328 15.3008C111.302 15.2227 111.198 15.1445 111.016 15.0664C110.846 14.9753 110.664 14.9036 110.469 14.8516C110.273 14.7865 110.124 14.7539 110.02 14.7539C109.967 14.7539 109.941 14.6367 109.941 14.4023C109.941 14.194 109.961 14.0703 110 14.0312C110.599 14.0573 111.133 14.0833 111.602 14.1094C112.083 14.1224 112.507 14.1289 112.871 14.1289C113.496 14.1159 113.984 14.1094 114.336 14.1094C114.688 14.1094 114.954 14.1094 115.137 14.1094C115.319 14.1094 115.475 14.1094 115.605 14.1094C116.126 14.1094 116.647 14.1745 117.168 14.3047C117.702 14.4349 118.19 14.6367 118.633 14.9102C119.076 15.1706 119.427 15.5091 119.688 15.9258C119.961 16.3294 120.098 16.8177 120.098 17.3906C120.098 17.9635 119.98 18.4974 119.746 18.9922C119.512 19.487 119.206 19.9036 118.828 20.2422C118.464 20.5807 118.086 20.8151 117.695 20.9453C117.591 20.9844 117.572 21.056 117.637 21.1602C117.923 21.6419 118.145 22.0065 118.301 22.2539C118.457 22.5013 118.587 22.7031 118.691 22.8594C118.809 23.0026 118.945 23.1849 119.102 23.4062C119.258 23.6146 119.479 23.9336 119.766 24.3633C119.987 24.6758 120.247 24.9883 120.547 25.3008C120.859 25.6003 121.191 25.8542 121.543 26.0625C121.908 26.2578 122.253 26.3555 122.578 26.3555C122.63 26.4076 122.656 26.5247 122.656 26.707C122.656 26.8633 122.63 26.9935 122.578 27.0977C122.487 27.1107 122.383 27.1172 122.266 27.1172C122.161 27.1302 122.038 27.1367 121.895 27.1367ZM115 20.2031H115.527C116.035 20.2031 116.426 19.9818 116.699 19.5391C116.986 19.0964 117.129 18.5104 117.129 17.7812C117.129 16.0495 116.523 15.1836 115.312 15.1836C114.857 15.1836 114.557 15.2357 114.414 15.3398C114.258 15.457 114.18 16.0951 114.18 17.2539V19.3633C114.18 19.7279 114.251 19.9622 114.395 20.0664C114.551 20.1576 114.753 20.2031 115 20.2031ZM123.34 27.0781C123.288 27.026 123.262 26.9219 123.262 26.7656C123.262 26.4922 123.281 26.3555 123.32 26.3555C123.424 26.3555 123.574 26.3294 123.77 26.2773C123.965 26.2253 124.147 26.1602 124.316 26.082C124.486 26.0039 124.583 25.9323 124.609 25.8672C124.661 25.6849 124.694 25.4635 124.707 25.2031C124.733 24.9427 124.746 24.6432 124.746 24.3047V16.8047C124.746 15.9714 124.694 15.4635 124.59 15.2812C124.551 15.2031 124.447 15.1315 124.277 15.0664C124.121 14.9883 123.958 14.9232 123.789 14.8711C123.62 14.819 123.483 14.793 123.379 14.793C123.327 14.793 123.301 14.6823 123.301 14.4609C123.301 14.2266 123.314 14.0964 123.34 14.0703L124.277 14.1289C124.564 14.1549 124.798 14.1745 124.98 14.1875C125.163 14.2005 125.339 14.207 125.508 14.207C125.69 14.194 125.911 14.1875 126.172 14.1875C126.432 14.1875 127.344 14.1484 128.906 14.0703C128.945 14.1875 128.965 14.3047 128.965 14.4219C128.965 14.6693 128.939 14.793 128.887 14.793C128.809 14.793 128.672 14.819 128.477 14.8711C128.281 14.9232 128.092 14.9883 127.91 15.0664C127.741 15.1315 127.643 15.1966 127.617 15.2617C127.578 15.418 127.546 15.6393 127.52 15.9258C127.493 16.1992 127.48 16.4336 127.48 16.6289V24.1484C127.48 24.513 127.493 24.8385 127.52 25.125C127.546 25.4115 127.585 25.6589 127.637 25.8672C127.663 25.9193 127.754 25.9844 127.91 26.0625C128.079 26.1406 128.255 26.2122 128.438 26.2773C128.633 26.3294 128.77 26.3555 128.848 26.3555C128.9 26.3555 128.926 26.4792 128.926 26.7266C128.926 26.8568 128.913 26.974 128.887 27.0781C128.835 27.0781 128.711 27.0716 128.516 27.0586C128.32 27.0456 128.053 27.026 127.715 27C127.376 26.974 127.077 26.9544 126.816 26.9414C126.556 26.9284 126.341 26.9219 126.172 26.9219C125.938 26.9219 125.618 26.9349 125.215 26.9609C124.811 26.987 124.427 27.0065 124.062 27.0195C123.711 27.0456 123.47 27.0651 123.34 27.0781ZM134.18 27.0781C134.128 27.026 134.102 26.9154 134.102 26.7461C134.102 26.4857 134.128 26.3555 134.18 26.3555C134.284 26.3555 134.434 26.3359 134.629 26.2969C134.824 26.2578 135.007 26.2057 135.176 26.1406C135.345 26.0625 135.443 25.9909 135.469 25.9258C135.547 25.6263 135.586 25.0534 135.586 24.207V16.7461C135.586 15.9518 135.534 15.4635 135.43 15.2812C135.391 15.2031 135.286 15.1315 135.117 15.0664C134.961 14.9883 134.798 14.9232 134.629 14.8711C134.46 14.819 134.323 14.793 134.219 14.793C134.167 14.793 134.141 14.6823 134.141 14.4609C134.141 14.2266 134.154 14.0964 134.18 14.0703L137.012 14.1875C137.142 14.2005 137.435 14.194 137.891 14.168C138.346 14.1419 138.965 14.1094 139.746 14.0703C139.785 14.1875 139.805 14.3047 139.805 14.4219C139.805 14.6693 139.779 14.793 139.727 14.793C139.648 14.793 139.512 14.819 139.316 14.8711C139.121 14.9232 138.932 14.9883 138.75 15.0664C138.581 15.1315 138.483 15.1966 138.457 15.2617C138.405 15.431 138.366 15.6523 138.34 15.9258C138.327 16.1862 138.32 16.4857 138.32 16.8242V24.2266C138.32 24.8516 138.372 25.3203 138.477 25.6328C138.529 25.8411 138.971 25.9453 139.805 25.9453H140.312C141.12 25.9453 141.849 25.776 142.5 25.4375C142.721 25.3203 142.969 25.099 143.242 24.7734C143.529 24.4479 143.75 24.0833 143.906 23.6797C143.932 23.6016 144.023 23.5625 144.18 23.5625C144.492 23.5625 144.688 23.6016 144.766 23.6797C144.115 25.4766 143.763 26.5964 143.711 27.0391C143.346 27.0391 142.871 27.0326 142.285 27.0195C141.712 27.0195 141.029 27.013 140.234 27C139.44 26.987 138.776 26.974 138.242 26.9609C137.721 26.9479 137.318 26.9479 137.031 26.9609L134.18 27.0781ZM144.59 27.0781C144.538 27.026 144.512 26.9284 144.512 26.7852C144.512 26.5117 144.525 26.375 144.551 26.375C144.655 26.375 144.811 26.3424 145.02 26.2773C145.228 26.2122 145.43 26.1341 145.625 26.043C145.833 25.9388 145.964 25.8411 146.016 25.75C146.12 25.5938 146.23 25.4049 146.348 25.1836C146.465 24.9492 146.549 24.7604 146.602 24.6172L146.699 24.3828L151.016 14.4609C151.159 14.1224 151.4 13.9531 151.738 13.9531C151.934 13.9531 152.09 14.0378 152.207 14.207L156.211 24.1094C156.328 24.4089 156.439 24.6953 156.543 24.9688C156.66 25.2292 156.764 25.4766 156.855 25.7109C156.908 25.8411 157.025 25.9583 157.207 26.0625C157.389 26.1536 157.585 26.2253 157.793 26.2773C158.014 26.3294 158.184 26.3555 158.301 26.3555C158.353 26.3555 158.379 26.4661 158.379 26.6875C158.379 26.8958 158.366 27.026 158.34 27.0781L157.148 27C156.771 26.974 156.445 26.9544 156.172 26.9414C155.898 26.9154 155.677 26.9089 155.508 26.9219L152.559 27.0781C152.507 27.026 152.48 26.8893 152.48 26.668C152.48 26.4596 152.507 26.3555 152.559 26.3555C152.845 26.3555 153.138 26.2969 153.438 26.1797C153.737 26.0495 153.887 25.8802 153.887 25.6719C153.887 25.6589 153.848 25.5417 153.77 25.3203C153.704 25.099 153.581 24.7799 153.398 24.3633L152.812 22.9375C152.76 22.8854 152.715 22.8594 152.676 22.8594C152.546 22.8464 152.324 22.8398 152.012 22.8398C151.699 22.8398 151.296 22.8398 150.801 22.8398C150.371 22.8398 149.987 22.8398 149.648 22.8398C149.323 22.8398 149.049 22.8464 148.828 22.8594C148.776 22.8594 148.73 22.8919 148.691 22.957L148.047 24.4414C147.826 24.9622 147.695 25.3398 147.656 25.5742C147.63 25.8086 147.747 25.9909 148.008 26.1211C148.242 26.2383 148.444 26.3099 148.613 26.3359C148.796 26.349 148.952 26.3555 149.082 26.3555C149.121 26.3685 149.141 26.4727 149.141 26.668C149.141 26.8372 149.128 26.974 149.102 27.0781C148.516 27.0391 148.086 27.0065 147.812 26.9805C147.552 26.9544 147.357 26.9414 147.227 26.9414C147.096 26.9284 146.953 26.9284 146.797 26.9414C146.654 26.9544 146.419 26.974 146.094 27C145.768 27.013 145.267 27.0391 144.59 27.0781ZM150.801 21.668C151.061 21.668 151.302 21.668 151.523 21.668C151.758 21.6549 151.979 21.6419 152.188 21.6289L152.246 21.5312L150.84 18.0352L149.316 21.5312C149.316 21.5833 149.329 21.6094 149.355 21.6094C149.746 21.6484 150.228 21.668 150.801 21.668ZM170.625 27.0977C170.482 27.0977 170.28 26.9479 170.02 26.6484L162.07 16.7656V24.2461C162.07 24.9362 162.122 25.3984 162.227 25.6328C162.305 25.776 162.461 25.9062 162.695 26.0234C162.93 26.1276 163.171 26.2057 163.418 26.2578C163.665 26.3099 163.854 26.3359 163.984 26.3359C164.01 26.3359 164.03 26.3945 164.043 26.5117C164.056 26.6159 164.062 26.7266 164.062 26.8438C164.062 26.9609 164.049 27.0391 164.023 27.0781C163.398 27.0781 162.865 27.0521 162.422 27C161.992 26.9479 161.647 26.9219 161.387 26.9219C161.074 26.9219 160.827 26.9284 160.645 26.9414C160.462 26.9544 160.254 26.974 160.02 27C159.798 27.026 159.447 27.0521 158.965 27.0781C158.926 27.0391 158.906 26.9219 158.906 26.7266C158.906 26.4792 158.926 26.3555 158.965 26.3555C159.264 26.3555 159.577 26.2969 159.902 26.1797C160.241 26.0495 160.482 25.8607 160.625 25.6133C160.755 25.4049 160.82 24.9297 160.82 24.1875V16.5117C160.82 15.8346 160.723 15.3724 160.527 15.125C160.488 15.0599 160.365 15.0078 160.156 14.9688C159.961 14.9167 159.746 14.8776 159.512 14.8516C159.29 14.8125 159.115 14.793 158.984 14.793C158.958 14.793 158.932 14.7409 158.906 14.6367C158.893 14.5326 158.887 14.4219 158.887 14.3047C158.9 14.1745 158.919 14.0964 158.945 14.0703L160.195 14.1484C160.495 14.1745 160.762 14.194 160.996 14.207C161.243 14.2201 161.452 14.2266 161.621 14.2266C161.842 14.2266 162.109 14.2135 162.422 14.1875C162.747 14.1615 163.118 14.1224 163.535 14.0703C163.796 14.5911 164.154 15.1641 164.609 15.7891C165.078 16.4141 165.599 17.0781 166.172 17.7812C166.758 18.4714 167.357 19.1875 167.969 19.9297C168.594 20.6719 169.186 21.4141 169.746 22.1562C169.759 22.1042 169.766 22.013 169.766 21.8828C169.779 21.7526 169.785 21.5768 169.785 21.3555V16.7656C169.785 16.0104 169.701 15.5417 169.531 15.3594C169.453 15.2552 169.31 15.1641 169.102 15.0859C168.906 14.9948 168.698 14.9232 168.477 14.8711C168.268 14.819 168.112 14.793 168.008 14.793C167.982 14.793 167.956 14.7409 167.93 14.6367C167.917 14.5326 167.91 14.4219 167.91 14.3047C167.91 14.1745 167.923 14.0964 167.949 14.0703C168.548 14.1224 169.062 14.1615 169.492 14.1875C169.922 14.2135 170.267 14.2266 170.527 14.2266C170.749 14.2266 171.029 14.2135 171.367 14.1875C171.706 14.1615 172.025 14.1354 172.324 14.1094C172.637 14.0833 172.845 14.0703 172.949 14.0703C173.001 14.1615 173.027 14.2786 173.027 14.4219C173.027 14.6693 172.995 14.793 172.93 14.793C172.227 14.793 171.686 15.0078 171.309 15.4375C171.126 15.6589 171.035 16.1341 171.035 16.8633V24.2852C171.035 24.5195 171.042 24.8646 171.055 25.3203C171.068 25.776 171.087 26.3424 171.113 27.0195C171.061 27.0716 170.898 27.0977 170.625 27.0977ZM174.121 27.0781C174.069 27.026 174.043 26.9219 174.043 26.7656C174.043 26.4922 174.062 26.3555 174.102 26.3555C174.206 26.3555 174.355 26.3294 174.551 26.2773C174.746 26.2253 174.928 26.1602 175.098 26.082C175.267 26.0039 175.365 25.9323 175.391 25.8672C175.443 25.6849 175.475 25.4635 175.488 25.2031C175.514 24.9427 175.527 24.6432 175.527 24.3047V16.8047C175.527 15.9714 175.475 15.4635 175.371 15.2812C175.332 15.2031 175.228 15.1315 175.059 15.0664C174.902 14.9883 174.74 14.9232 174.57 14.8711C174.401 14.819 174.264 14.793 174.16 14.793C174.108 14.793 174.082 14.6823 174.082 14.4609C174.082 14.2266 174.095 14.0964 174.121 14.0703L176.953 14.1875C177.083 14.2005 177.376 14.194 177.832 14.168C178.288 14.1419 178.906 14.1094 179.688 14.0703C179.727 14.1875 179.746 14.3047 179.746 14.4219C179.746 14.6693 179.72 14.793 179.668 14.793C179.59 14.793 179.453 14.819 179.258 14.8711C179.062 14.9232 178.874 14.9883 178.691 15.0664C178.522 15.1315 178.424 15.1966 178.398 15.2617C178.307 15.5872 178.262 16.1406 178.262 16.9219V20.0078C178.262 20.112 178.301 20.1641 178.379 20.1641H178.535C178.613 20.1641 178.9 19.9167 179.395 19.4219C179.954 18.849 180.527 18.2435 181.113 17.6055C181.712 16.9544 182.324 16.2708 182.949 15.5547C183.053 15.4115 183.105 15.2617 183.105 15.1055C183.105 15.0143 183.034 14.9492 182.891 14.9102C182.76 14.8581 182.604 14.819 182.422 14.793C182.24 14.7669 182.077 14.7539 181.934 14.7539C181.882 14.7539 181.842 14.6628 181.816 14.4805C181.79 14.2982 181.79 14.1615 181.816 14.0703C183.262 14.1484 184.134 14.1875 184.434 14.1875C184.59 14.1875 185.449 14.1484 187.012 14.0703C187.038 14.1224 187.044 14.2461 187.031 14.4414C187.031 14.6367 187.012 14.7409 186.973 14.7539L186.855 14.7734C186.725 14.7734 186.582 14.7865 186.426 14.8125C186.283 14.8255 186.146 14.8451 186.016 14.8711C185.846 14.9102 185.618 14.9948 185.332 15.125C185.059 15.2422 184.85 15.3854 184.707 15.5547L181.348 19.2656C181.191 19.4349 181.185 19.6237 181.328 19.832L185.957 25.8672C186.1 26.0365 186.322 26.1602 186.621 26.2383C186.934 26.3164 187.168 26.3555 187.324 26.3555C187.376 26.3555 187.402 26.4792 187.402 26.7266C187.402 26.8698 187.376 26.987 187.324 27.0781L186.094 27C185.69 26.974 185.345 26.9544 185.059 26.9414C184.772 26.9284 184.544 26.9219 184.375 26.9219C184.023 26.9219 183.613 26.9349 183.145 26.9609C182.689 26.987 182.174 27.026 181.602 27.0781C181.549 27.026 181.523 26.8893 181.523 26.668C181.523 26.4596 181.549 26.3555 181.602 26.3555C181.745 26.3555 181.934 26.3164 182.168 26.2383C182.402 26.1602 182.52 26.069 182.52 25.9648C182.52 25.5352 181.361 24.0182 179.043 21.4141C179.004 21.375 178.913 21.3555 178.77 21.3555C178.431 21.3555 178.262 21.4661 178.262 21.6875V24.1484C178.262 24.513 178.275 24.8385 178.301 25.125C178.327 25.4115 178.366 25.6589 178.418 25.8672C178.444 25.9193 178.535 25.9844 178.691 26.0625C178.861 26.1406 179.036 26.2122 179.219 26.2773C179.414 26.3294 179.551 26.3555 179.629 26.3555C179.681 26.3555 179.707 26.4792 179.707 26.7266C179.707 26.8568 179.694 26.974 179.668 27.0781C179.616 27.0781 179.492 27.0716 179.297 27.0586C179.102 27.0456 178.835 27.026 178.496 27C178.158 26.974 177.858 26.9544 177.598 26.9414C177.337 26.9284 177.122 26.9219 176.953 26.9219C176.719 26.9219 176.4 26.9349 175.996 26.9609C175.592 26.987 175.208 27.0065 174.844 27.0195C174.492 27.0456 174.251 27.0651 174.121 27.0781ZM187.891 27.0781C187.839 27.026 187.812 26.9284 187.812 26.7852C187.812 26.5117 187.826 26.375 187.852 26.375C187.956 26.375 188.112 26.3424 188.32 26.2773C188.529 26.2122 188.73 26.1341 188.926 26.043C189.134 25.9388 189.264 25.8411 189.316 25.75C189.421 25.5938 189.531 25.4049 189.648 25.1836C189.766 24.9492 189.85 24.7604 189.902 24.6172L190 24.3828L194.316 14.4609C194.46 14.1224 194.701 13.9531 195.039 13.9531C195.234 13.9531 195.391 14.0378 195.508 14.207L199.512 24.1094C199.629 24.4089 199.74 24.6953 199.844 24.9688C199.961 25.2292 200.065 25.4766 200.156 25.7109C200.208 25.8411 200.326 25.9583 200.508 26.0625C200.69 26.1536 200.885 26.2253 201.094 26.2773C201.315 26.3294 201.484 26.3555 201.602 26.3555C201.654 26.3555 201.68 26.4661 201.68 26.6875C201.68 26.8958 201.667 27.026 201.641 27.0781L200.449 27C200.072 26.974 199.746 26.9544 199.473 26.9414C199.199 26.9154 198.978 26.9089 198.809 26.9219L195.859 27.0781C195.807 27.026 195.781 26.8893 195.781 26.668C195.781 26.4596 195.807 26.3555 195.859 26.3555C196.146 26.3555 196.439 26.2969 196.738 26.1797C197.038 26.0495 197.188 25.8802 197.188 25.6719C197.188 25.6589 197.148 25.5417 197.07 25.3203C197.005 25.099 196.882 24.7799 196.699 24.3633L196.113 22.9375C196.061 22.8854 196.016 22.8594 195.977 22.8594C195.846 22.8464 195.625 22.8398 195.312 22.8398C195 22.8398 194.596 22.8398 194.102 22.8398C193.672 22.8398 193.288 22.8398 192.949 22.8398C192.624 22.8398 192.35 22.8464 192.129 22.8594C192.077 22.8594 192.031 22.8919 191.992 22.957L191.348 24.4414C191.126 24.9622 190.996 25.3398 190.957 25.5742C190.931 25.8086 191.048 25.9909 191.309 26.1211C191.543 26.2383 191.745 26.3099 191.914 26.3359C192.096 26.349 192.253 26.3555 192.383 26.3555C192.422 26.3685 192.441 26.4727 192.441 26.668C192.441 26.8372 192.428 26.974 192.402 27.0781C191.816 27.0391 191.387 27.0065 191.113 26.9805C190.853 26.9544 190.658 26.9414 190.527 26.9414C190.397 26.9284 190.254 26.9284 190.098 26.9414C189.954 26.9544 189.72 26.974 189.395 27C189.069 27.013 188.568 27.0391 187.891 27.0781ZM194.102 21.668C194.362 21.668 194.603 21.668 194.824 21.668C195.059 21.6549 195.28 21.6419 195.488 21.6289L195.547 21.5312L194.141 18.0352L192.617 21.5312C192.617 21.5833 192.63 21.6094 192.656 21.6094C193.047 21.6484 193.529 21.668 194.102 21.668Z" fill="white"/>
<path d="M109.233 43.9091V73H102.202V43.9091H109.233ZM113.647 73V43.9091H125.664C127.842 43.9091 129.722 44.3352 131.303 45.1875C132.894 46.0303 134.121 47.2093 134.982 48.7244C135.844 50.2301 136.275 51.982 136.275 53.9801C136.275 55.9877 135.835 57.7443 134.954 59.25C134.083 60.7462 132.837 61.9062 131.218 62.7301C129.599 63.554 127.676 63.9659 125.451 63.9659H118.036V58.4261H124.144C125.205 58.4261 126.09 58.2415 126.8 57.8722C127.52 57.5028 128.065 56.9867 128.434 56.3239C128.803 55.6515 128.988 54.8703 128.988 53.9801C128.988 53.0805 128.803 52.304 128.434 51.6506C128.065 50.9877 127.52 50.4763 126.8 50.1165C126.081 49.7566 125.195 49.5767 124.144 49.5767H120.678V73H113.647ZM139.741 73V43.9091H160.025V49.6193H146.772V55.5852H158.988V61.3097H146.772V67.2898H160.025V73H139.741ZM163.477 49.6193V43.9091H188.065V49.6193H179.244V73H172.312V49.6193H163.477Z" fill="white"/>
<defs>
<linearGradient id="paint0_linear_60_222" x1="5.625" y1="5.625" x2="84.375" y2="84.375" gradientUnits="userSpaceOnUse">
<stop stop-color="#52E5E7"/>
<stop offset="1" stop-color="#130CB7"/>
</linearGradient>
</defs>
</svg>
