<svg width="90" height="84" viewBox="0 0 90 84" fill="none" xmlns="http://www.w3.org/2000/svg">
<rect width="70" height="70" transform="translate(10 7)" fill="#2D387D"/>
<path d="M58.75 28.25H31.25C30.587 28.25 29.9511 28.5134 29.4822 28.9822C29.0134 29.4511 28.75 30.087 28.75 30.75V53.25C28.75 53.913 29.0134 54.5489 29.4822 55.0178C29.9511 55.4866 30.587 55.75 31.25 55.75H33.3422C33.5788 55.7501 33.8105 55.683 34.0105 55.5566C34.2104 55.4302 34.3704 55.2497 34.4719 55.0359C35.0797 53.7526 36.0394 52.6682 37.2393 51.9089C38.4392 51.1495 39.83 50.7464 41.25 50.7464C42.67 50.7464 44.0608 51.1495 45.2607 51.9089C46.4606 52.6682 47.4203 53.7526 48.0281 55.0359C48.1296 55.2497 48.2896 55.4302 48.4895 55.5566C48.6895 55.683 48.9212 55.7501 49.1578 55.75H58.75C59.413 55.75 60.0489 55.4866 60.5178 55.0178C60.9866 54.5489 61.25 53.913 61.25 53.25V30.75C61.25 30.087 60.9866 29.4511 60.5178 28.9822C60.0489 28.5134 59.413 28.25 58.75 28.25ZM41.25 48.25C40.2611 48.25 39.2944 47.9568 38.4721 47.4073C37.6499 46.8579 37.009 46.077 36.6306 45.1634C36.2522 44.2498 36.1531 43.2445 36.3461 42.2745C36.539 41.3046 37.0152 40.4137 37.7145 39.7145C38.4137 39.0152 39.3046 38.539 40.2745 38.3461C41.2445 38.1531 42.2498 38.2522 43.1634 38.6306C44.077 39.009 44.8579 39.6499 45.4073 40.4721C45.9568 41.2944 46.25 42.2611 46.25 43.25C46.25 44.5761 45.7232 45.8479 44.7855 46.7855C43.8479 47.7232 42.5761 48.25 41.25 48.25ZM58.75 53.25H49.9109C49.3658 52.3105 48.6713 51.4661 47.8547 50.75H55C55.3315 50.75 55.6495 50.6183 55.8839 50.3839C56.1183 50.1495 56.25 49.8315 56.25 49.5V34.5C56.25 34.1685 56.1183 33.8505 55.8839 33.6161C55.6495 33.3817 55.3315 33.25 55 33.25H35C34.6685 33.25 34.3505 33.3817 34.1161 33.6161C33.8817 33.8505 33.75 34.1685 33.75 34.5V49.5C33.7499 49.7772 33.8419 50.0466 34.0116 50.2658C34.1813 50.4851 34.4191 50.6416 34.6875 50.7109C33.8519 51.4349 33.1427 52.293 32.5891 53.25H31.25V30.75H58.75V53.25Z" fill="white"/>
</svg>
