<svg width="90" height="100" viewBox="0 0 90 100" fill="none" xmlns="http://www.w3.org/2000/svg">
<rect width="70" height="70" transform="translate(10 15)" fill="#2D387D"/>
<path d="M55 55H51.6666V58.3333H55M55 48.3333H51.6666V51.6667H55M58.3333 61.6667H45V58.3333H48.3333V55H45V51.6667H48.3333V48.3333H45V45H58.3333M41.6666 41.6667H38.3333V38.3333H41.6666M41.6666 48.3333H38.3333V45H41.6666M41.6666 55H38.3333V51.6667H41.6666M41.6666 61.6667H38.3333V58.3333H41.6666M35 41.6667H31.6666V38.3333H35M35 48.3333H31.6666V45H35M35 55H31.6666V51.6667H35M35 61.6667H31.6666V58.3333H35M45 41.6667V35H28.3333V65H61.6666V41.6667H45Z" fill="white"/>
</svg>
